<?xml version="1.0" encoding="UTF-8"?>
<svg xmlns="http://www.w3.org/2000/svg" viewBox="0 0 245 60.8" role="img" aria-labelledby="title">
  <title id="title">William &amp; Mary logo</title>
  <path fill="#004e38" d="M60.6,59.6h-1.9L41,11.7l-15.5,47.9h-2.1L9.4,14.4c-1.3-4.1-2.2-6.8-2.7-8.2-.6-1.4-1.3-2.4-2.2-3s-2.4-1-4.5-1.1V.1h21.8v2c-2.6.2-4.3.5-5.1,1.1-.7.6-1.1,1.4-1.1,2.5s.6,3.4,1.8,7.2l10.4,33.8L43,0h2.4l17.1,46.7,8.9-30.8c1.2-4.2,1.8-6.9,1.8-8.2,0-3.8-2-5.7-6-5.7V0h15.9v2c-2.3.2-4.1,1-5.2,2.6s-2.6,5.3-4.3,11.2l-12.8,43.7h-.2Z"/>
  <path fill="#b8965b" transform="translate(-278 0)" d="M383.3,23.4c-1.3-2.8-1.9-5.4-1.9-7.8s.8-5.3,2.4-7.6,3.7-4.2,6.1-5.7c2.5-1.4,5.1-2.2,7.7-2.2s5.5.8,7.5,2.5c2,1.7,3,3.6,3,5.9s-.5,3.3-1.4,4.8c-1,1.5-2,2.2-3,2.2s-.8-.3-.8-.8.1-.6.4-1.3c.5-1.1.7-2.3.7-3.4,0-1.7-.7-3.1-2.1-4.2s-3.1-1.6-5.1-1.6c-3.2,0-6.2,1.3-8.9,3.9-2.8,2.6-4.2,5.6-4.2,9s.2,2.8.6,3.9c.4,1,.8,1.7,1.1,2,.3.3.8.5,1.4.5,4,0,5.9,1.1,5.9,3.4s-.2,1.1-.6,1.6-1,.8-1.8.8-2-.6-3.4-1.8c-1.5-1.3-2.9-1.9-4.3-1.9s-3.5.9-5.1,2.7c-1.6,1.8-2.4,3.9-2.4,6.4,0,4.8,2.4,9.3,7.2,13.6,4.8,4.3,10.7,6.4,17.8,6.4s12.5-1.7,17.3-5,7.2-7.3,7.2-12-1.2-5.8-3.5-8.1c-2.4-2.3-5.5-3.4-9.6-3.4s-6.1.9-8.7,2.7c-2.5,1.8-3.8,4-3.8,6.7s.5,2.9,1.4,4c.9,1,1.9,1.6,2.8,1.6s1.7-.6,1.7-1.8v-1.3c0-1.3.3-2.3,1-3.1s1.6-1.2,2.6-1.2,1.9.4,2.6,1.1,1.1,1.7,1.1,3-.6,3.3-1.9,4.5-2.9,1.8-4.8,1.8-4.3-.8-6-2.5-2.5-3.7-2.5-6.1c0-3.5,1.5-6.7,4.4-9.6,3-2.9,8.3-4.4,16.1-4.4s12-1,15.2-2.9,4.7-4.8,4.7-8.7-.7-4.2-2.1-5.7-3.2-2.2-5.3-2.2-1.9.2-2.4.5-.8.8-.8,1.4.3,1,.8,1.7c.7.9,1,1.9,1,2.8s-.4,2-1.2,2.8c-.8.8-1.8,1.2-3,1.2s-2.5-.5-3.3-1.4c-.7-.9-1.1-2-1.1-3.2,0-2,1-3.7,2.9-5.3,1.9-1.6,4.3-2.3,7.3-2.3s5.6,1.1,7.6,3.3c2,2.2,3,4.9,3,8s-.9,5.7-2.6,8.1-3.9,4.2-6.6,5.2-6.4,1.6-11.2,1.8c4.6,3.2,6.9,7.4,6.9,12.5s-1.4,7.5-4.2,11.1c-2.8,3.6-6.2,6.2-10.2,7.9s-8.9,2.6-14.7,2.6-8.5-.5-11.4-1.5-5.7-2.5-8.3-4.5c-2.6-2-4.7-4.3-6.2-7.2-1.5-2.8-2.3-5.9-2.3-9.1s1.1-7.3,3.4-10,5.6-4.4,10.1-5h-.2Z"/>
  <path fill="#004e38" transform="translate(-300 0)" d="M497.8,49.4L519.5.2h18.2v2h-2.2c-2.9,0-4.8.2-5.7.7s-1.5,1.4-1.8,2.7-.5,4.4-.5,9.4v29.2c0,4.7,0,7.7.4,9.2.2,1.4.8,2.5,1.8,3.2.9.7,2.8,1.1,5.5,1.1h2.6v2h-28.4v-2h2.1c2.5,0,4.3-.3,5.2-1,1-.6,1.6-1.6,1.9-3,.3-1.4.4-4.5.4-9.5V6.4l-23.5,53.3h-2.1l-23.7-53.3v34.8c0,4.8,0,8,.4,9.7.3,1.7,1.2,3.2,2.7,4.5s3.7,2,6.4,2.2v2h-21.3v-2c2.5,0,4.6-.8,6.2-2.1,1.6-1.2,2.6-2.8,2.9-4.6.4-1.8.5-5.2.5-10.1V14.9c0-4.7,0-7.8-.4-9.2-.3-1.4-.9-2.3-1.8-2.9s-2.8-.8-5.9-.8h-1.6V0h18.1l21.8,49.2v.2h0Z"/>
</svg>
